<svg xmlns="http://www.w3.org/2000/svg" viewBox="0 0 1280 720">
  <defs>
    <linearGradient id="sky" x1="0" x2="0" y1="0" y2="1"><stop stop-color="#9fb5bd"/><stop offset="1" stop-color="#d6d0bd"/></linearGradient>
    <linearGradient id="track" x1="0" x2="1" y1="0" y2="1"><stop stop-color="#373c3d"/><stop offset="1" stop-color="#151a1b"/></linearGradient>
  </defs>
  <rect width="1280" height="720" fill="url(#sky)"/>
  <rect y="300" width="1280" height="420" fill="#6d7a57"/>
  <path d="M-70 635 C220 270 420 260 650 470 S1040 670 1360 250" fill="none" stroke="#c6b98e" stroke-width="170"/>
  <path d="M-70 635 C220 270 420 260 650 470 S1040 670 1360 250" fill="none" stroke="url(#track)" stroke-width="145"/>
  <path d="M-70 635 C220 270 420 260 650 470 S1040 670 1360 250" fill="none" stroke="#e9e0bd" stroke-width="4" stroke-dasharray="22 18"/>
  <g fill="#d3d5cb" opacity=".9"><rect x="30" y="130" width="210" height="80"/><rect x="960" y="100" width="250" height="100"/></g>
  <g fill="#35434a"><rect x="55" y="145" width="18" height="50"/><rect x="100" y="145" width="18" height="50"/><rect x="145" y="145" width="18" height="50"/><rect x="1010" y="115" width="20" height="70"/><rect x="1060" y="115" width="20" height="70"/><rect x="1110" y="115" width="20" height="70"/></g>
  <text x="34" y="680" fill="#f6f2e8" font-family="sans-serif" font-size="22" letter-spacing="3">SATURDAY PRACTICE · FIXED CAMERA 01</text>
</svg>
